<svg width="264" height="111" viewBox="0 0 264 111" fill="none" xmlns="http://www.w3.org/2000/svg">
<path d="M155.971 37.5536C156.329 33.1694 153.374 30.2073 148.932 30.3744C145.366 30.509 142.17 33.6291 141.971 37.1764C141.816 39.9082 146.772 43.9815 146.626 46.7561C146.39 51.2799 138.351 47.9915 135.385 47.3493C135.385 47.3493 132.368 46.6959 133.156 43.5615C133.798 41.005 136.628 37.2202 132.86 36.0256C129.163 34.8554 124.461 37.4741 122.136 40.1946C120.882 41.6615 118.835 42.5992 116.031 39.2202C113.428 36.0837 111.829 31.4957 113.763 27.6273C115.455 24.2442 119.084 22.5878 122.224 20.8233C125.905 18.7551 129.506 16.5676 133.273 14.6513C135.985 13.2721 139.218 11.3639 142.327 11.2283C146.776 11.0347 145.643 17.274 150.975 16.7633C154.838 16.3923 156.919 11.8736 154.813 8.63517C152.121 4.49771 144.19 12.2365 143.612 8.03988C143.137 4.59251 142.873 -0.750823 138.82 0.0880852C136.26 0.618137 134.304 2.20116 132.863 4.30709C131.883 5.73925 131.564 7.96955 129.771 8.66677C127.726 9.46286 125.71 7.62399 123.855 7.08171C118.109 5.40083 113.331 11.9042 111.25 16.2679C111.25 16.2679 97.083 48.9171 127.907 54.5325C135.764 55.9637 145.096 54.1646 150.972 48.3625C153.407 45.959 155.652 41.4545 155.972 37.5536H155.971Z" fill="white"/>
<path d="M248.843 110.264V105.552H250.325C250.933 105.552 251.427 105.4 251.427 104.678C251.427 104.146 251.237 103.044 251.009 101.942L247.019 81.574H253.707L255.341 98.636H255.417L257.089 81.574H263.511L259.255 103.804C258.799 106.122 258.267 107.718 257.241 108.744C256.215 109.77 254.695 110.264 251.883 110.264H248.843Z" fill="white"/>
<path d="M246.487 81.5741V103.006C246.487 108.554 243.941 110.264 238.545 110.264C234.897 110.264 231.249 109.238 230.793 105.096H237.101C237.101 105.704 237.253 106.122 237.481 106.35C237.709 106.578 238.051 106.654 238.545 106.654C239.457 106.654 239.989 106.046 239.989 104.982V100.688L239.913 100.612C239.229 102.512 237.519 103.5 235.429 103.5C232.655 103.5 230.451 101.334 230.451 97.7241V88.7181C230.451 85.0321 231.135 81.0801 235.657 81.0801C238.013 81.0801 239.153 82.2961 240.065 84.2721H240.141V81.5741H246.487ZM236.987 87.8061V97.0021C236.987 98.3321 237.633 98.7881 238.317 98.7881C239.951 98.7881 239.951 96.1661 239.951 95.3301V89.0221C239.951 86.7421 239.039 86.0201 238.317 86.0201C237.747 86.0201 236.987 86.3241 236.987 87.8061Z" fill="white"/>
<path d="M218.937 105.856V81.5741H225.131V85.8681H225.207C226.119 83.6261 226.917 81.0801 229.881 81.0801V88.9841H228.361C226.119 88.9841 225.473 90.3901 225.473 92.0621V105.856H218.937Z" fill="white"/>
<path d="M201.077 99.4341V87.9961C201.077 85.1461 202.559 81.0801 209.095 81.0801C215.631 81.0801 217.113 85.1461 217.113 87.9961V94.6841H207.613V99.8901C207.613 100.726 207.613 101.866 209.095 101.866C210.577 101.866 210.577 100.726 210.577 99.8901V96.8501H217.113V99.4341C217.113 102.284 215.631 106.35 209.095 106.35C202.559 106.35 201.077 102.284 201.077 99.4341ZM207.613 87.5401V90.2001H210.577V87.5401C210.577 86.7041 210.577 85.5641 209.095 85.5641C207.613 85.5641 207.613 86.7041 207.613 87.5401Z" fill="white"/>
<path d="M183.217 105.856V81.5741H189.525V84.2721H189.601C190.779 82.2201 192.071 81.0801 194.579 81.0801C197.695 81.0801 199.253 83.3601 199.253 86.2861V105.856H192.717V89.2501C192.717 88.3761 192.717 86.9321 191.235 86.9321C189.753 86.9321 189.753 88.6801 189.753 89.2501V105.856H183.217Z" fill="white"/>
<path d="M168.004 110.264V105.552H169.486C170.094 105.552 170.588 105.4 170.588 104.678C170.588 104.146 170.398 103.044 170.17 101.942L166.18 81.574H172.868L174.502 98.636H174.578L176.25 81.574H182.672L178.416 103.804C177.96 106.122 177.428 107.718 176.402 108.744C175.376 109.77 173.856 110.264 171.044 110.264H168.004Z" fill="white"/>
<path d="M147.307 95.558H154.071V97.8C154.071 99.434 154.451 100.954 156.427 100.954C158.023 100.954 158.859 99.928 158.859 98.598C158.859 95.938 156.085 94.152 153.311 92.138C150.499 89.82 147.687 88.148 147.687 83.512C147.687 77.546 151.031 75 156.617 75C162.697 75 165.357 77.964 165.357 82.638V85.374H158.821V83.74C158.821 82.22 158.593 80.396 156.617 80.396C155.135 80.396 154.223 81.27 154.223 82.676C154.223 84.5 157.187 86.59 160.037 88.718C162.621 90.998 165.851 92.48 165.851 98.598C165.851 101.524 163.647 106.35 156.351 106.35C149.435 106.35 147.307 101.98 147.307 98.826V95.558Z" fill="white"/>
<path d="M130.233 105.856V75.4939H136.769V105.856H130.233Z" fill="white"/>
<path d="M127.877 88.6801V105.856H121.873V103.994H121.797C120.809 105.476 118.985 106.35 117.161 106.35C112.373 106.35 111.841 102.854 111.841 98.9401C111.841 94.3801 114.387 92.8601 116.781 91.7961C119.213 90.7701 121.569 90.2001 121.569 87.5781C121.569 86.2861 121.265 85.5641 120.049 85.5641C118.871 85.5641 118.377 86.2101 118.377 87.2361V89.2121H112.297V87.0081C112.297 83.4361 115.489 81.0801 119.973 81.0801C125.863 81.0801 127.877 83.4361 127.877 88.6801ZM121.569 100.194V93.6581L119.745 94.9881C118.985 95.5581 118.605 96.2041 118.605 97.1541V100.384C118.605 101.752 119.137 102.322 120.049 102.322C121.075 102.322 121.569 101.372 121.569 100.194Z" fill="white"/>
<path d="M93.9807 99.4341V87.9961C93.9807 85.1461 95.4627 81.0801 101.999 81.0801C108.535 81.0801 110.017 85.1461 110.017 87.9961V90.5801H103.481V87.5401C103.481 86.7041 103.481 85.5641 101.999 85.5641C100.517 85.5641 100.517 86.7041 100.517 87.5401V99.8901C100.517 100.726 100.517 101.866 101.999 101.866C103.481 101.866 103.481 100.726 103.481 99.8901V95.5201H110.017V99.4341C110.017 102.284 108.535 106.35 101.999 106.35C95.4627 106.35 93.9807 102.284 93.9807 99.4341Z" fill="white"/>
<path d="M85.0764 105.856V81.5739H91.6124V105.856H85.0764ZM85.0764 79.9779V75.4939H91.6124V79.9779H85.0764Z" fill="white"/>
<path d="M56.4122 105.856V81.5741H62.7202V84.5761H62.7962C64.0122 82.3721 65.2282 81.0801 67.8882 81.0801C69.9782 81.0801 71.8782 82.0301 72.4102 84.5761C73.6642 82.3721 74.6142 81.0801 77.6162 81.0801C80.7702 81.0801 82.4042 83.2841 82.4042 86.2861V105.856H75.8682V89.5541C75.8682 88.6801 75.8682 86.9321 74.2722 86.9321C72.6762 86.9321 72.6762 88.9841 72.6762 89.5541V105.856H66.1402V89.5541C66.1402 88.6801 66.1402 86.9321 64.5442 86.9321C62.9482 86.9321 62.9482 88.9841 62.9482 89.5541V105.856H56.4122Z" fill="white"/>
<path d="M38.2483 99.4341V87.9961C38.2483 85.1461 39.7303 81.0801 46.2663 81.0801C52.8023 81.0801 54.2843 85.1461 54.2843 87.9961V94.6841H44.7843V99.8901C44.7843 100.726 44.7843 101.866 46.2663 101.866C47.7483 101.866 47.7483 100.726 47.7483 99.8901V96.8501H54.2843V99.4341C54.2843 102.284 52.8023 106.35 46.2663 106.35C39.7303 106.35 38.2483 102.284 38.2483 99.4341ZM44.7843 87.5401V90.2001H47.7483V87.5401C47.7483 86.7041 47.7483 85.5641 46.2663 85.5641C44.7843 85.5641 44.7843 86.7041 44.7843 87.5401Z" fill="white"/>
<path d="M20.3883 105.856V75.4939H26.9243V83.8159H27.0003C28.1023 82.0299 29.4323 81.0799 31.7503 81.0799C34.8663 81.0799 36.4243 83.3599 36.4243 86.2859V105.856H29.8883V89.2499C29.8883 88.3759 29.8883 86.9319 28.4063 86.9319C26.9243 86.9319 26.9243 88.6799 26.9243 89.2499V105.856H20.3883Z" fill="white"/>
<path d="M0.489014 97.572V83.778C0.489014 77.85 4.28901 75 9.49501 75C14.701 75 18.501 77.85 18.501 83.778V86.59H11.509V83.17C11.509 82.144 11.509 80.396 9.49501 80.396C7.48101 80.396 7.48101 82.144 7.48101 83.17V98.18C7.48101 98.978 7.48101 100.954 9.49501 100.954C11.509 100.954 11.509 98.978 11.509 98.18V93.734H18.501V97.572C18.501 102.968 15.043 106.35 9.49501 106.35C3.94701 106.35 0.489014 102.968 0.489014 97.572Z" fill="white"/>
</svg>
