<svg
    width="16"
    height="19"
    viewBox="0 0 16 19"
    fill="none"
    xmlns="http://www.w3.org/2000/svg"
  >
    <path d="M15.9902 12.973C16.1097 11.4585 15.1247 10.4352 13.6439 10.493C12.4553 10.5395 11.3901 11.6173 11.3236 12.8428C11.2721 13.7865 12.9238 15.1936 12.8754 16.1521C12.7965 17.7149 10.1168 16.5789 9.1285 16.357C9.1285 16.357 8.12276 16.1313 8.3852 15.0485C8.59918 14.1654 9.54281 12.8579 8.28657 12.4452C7.05422 12.041 5.48707 12.9456 4.71203 13.8854C4.29397 14.3921 3.61176 14.7161 2.677 13.5488C1.80947 12.4653 1.2764 10.8803 1.92107 9.54399C2.48486 8.37526 3.69469 7.80304 4.74138 7.1935C5.96827 6.47903 7.16854 5.72335 8.42444 5.06134C9.32849 4.58491 10.4059 3.92572 11.4424 3.87888C12.9252 3.81198 12.5478 5.96738 14.3251 5.79096C15.6128 5.66278 16.3062 4.10178 15.6042 2.98306C14.707 1.55375 12.0635 4.22714 11.8707 2.77741C11.7123 1.5865 11.6243 -0.259375 10.2735 0.0304294C9.41995 0.213538 8.76811 0.760399 8.28759 1.4879C7.96099 1.98265 7.85451 2.75312 7.25694 2.99397C6.57541 3.26899 5.90343 2.63374 5.28504 2.44641C3.36979 1.86574 1.77705 4.11235 1.08324 5.61982C1.08324 5.61982 -3.63901 16.8986 6.63581 18.8385C9.25477 19.3329 12.3652 18.7114 14.3241 16.7071C15.1357 15.8767 15.8841 14.3207 15.9906 12.973H15.9902Z" fill="#DADADA" />
  </svg>